<?xml version="1.0" encoding="UTF-8"?>
<svg xmlns="http://www.w3.org/2000/svg" id="Layer_1" data-name="Layer 1" viewBox="0 0 24 24">
  <path d="m8,23c0,.553-.447,1-1,1h-2c-2.757,0-5-2.243-5-5v-2c0-.553.447-1,1-1s1,.447,1,1v2c0,1.654,1.346,3,3,3h2c.553,0,1,.447,1,1Zm15-7c-.553,0-1,.447-1,1v2c0,1.654-1.346,3-3,3h-2c-.553,0-1,.447-1,1s.447,1,1,1h2c2.757,0,5-2.243,5-5v-2c0-.553-.447-1-1-1ZM19,0h-2c-.553,0-1,.447-1,1s.447,1,1,1h2c1.654,0,3,1.346,3,3v2c0,.553.447,1,1,1s1-.447,1-1v-2c0-2.757-2.243-5-5-5ZM1,8c.553,0,1-.447,1-1v-2c0-1.654,1.346-3,3-3h2c.553,0,1-.447,1-1s-.447-1-1-1h-2C2.243,0,0,2.243,0,5v2c0,.553.447,1,1,1Zm11,2c-1.105,0-2,.895-2,2s.895,2,2,2,2-.895,2-2-.895-2-2-2Zm3,7h-6c-1.654,0-3-1.346-3-3v-4c0-1.639,1.321-2.974,2.953-2.999l.696-1.083c.368-.574.997-.918,1.682-.918h1.338c.685,0,1.313.344,1.683.919l.695,1.082c1.633.025,2.953,1.36,2.953,2.999v4c0,1.654-1.346,3-3,3Zm1-7c0-.552-.448-1-1-1h-6c-.552,0-1,.448-1,1v4c0,.552.448,1,1,1h6c.552,0,1-.448,1-1v-4Z"/>
</svg>
